<?xml version="1.0" standalone="no"?>
<!DOCTYPE svg PUBLIC "-//W3C//DTD SVG 20010904//EN"
 "http://www.w3.org/TR/2001/REC-SVG-20010904/DTD/svg10.dtd">
<svg version="1.0" xmlns="http://www.w3.org/2000/svg"
 width="1772.000000pt" height="1772.000000pt" viewBox="0 0 1772.000000 1772.000000"
 preserveAspectRatio="xMidYMid meet">

<g transform="translate(0.000000,1772.000000) scale(0.100000,-0.100000)"
fill="#000000" stroke="none">
<path d="M8875 15109 c-4 -122 -4 -347 0 -501 l8 -280 -24 8 c-13 5 -58 9 -99
9 -86 -1 -159 -28 -225 -86 -77 -68 -96 -181 -39 -240 86 -90 302 -44 395 84
l29 40 0 368 c0 202 3 374 6 383 16 43 131 -1 210 -79 105 -104 118 -215 44
-372 -46 -98 -47 -103 -22 -103 25 0 43 22 80 95 40 81 55 155 51 251 -6 122
-35 171 -189 324 -108 107 -130 134 -148 183 -12 32 -22 65 -22 75 0 36 -13
62 -30 62 -16 0 -18 -20 -25 -221z"/>
<path d="M4957 14303 c-24 -32 -96 -131 -159 -219 -678 -952 -1057 -1888
-1144 -2819 -22 -236 -14 -726 15 -940 64 -471 190 -889 396 -1310 245 -501
544 -917 949 -1320 190 -189 245 -233 254 -207 3 10 7 10 18 1 33 -28 19 5
-57 132 -438 727 -696 1655 -759 2733 -13 224 -13 756 0 986 49 876 201 1760
474 2770 50 182 65 244 61 248 -1 2 -23 -23 -48 -55z"/>
<path d="M12505 14345 c4 -11 13 -51 21 -90 8 -38 28 -115 44 -170 37 -127
138 -532 184 -735 151 -667 251 -1371 286 -2015 13 -242 13 -740 0 -971 -61
-1081 -315 -2000 -759 -2743 -76 -127 -90 -159 -57 -132 11 9 15 9 18 -1 9
-25 92 44 268 221 780 785 1249 1743 1344 2750 21 213 21 607 1 817 -71 749
-336 1510 -791 2270 -192 321 -588 887 -559 799z"/>
<path d="M8727 13792 c-9 -2 -15 -8 -12 -13 8 -12 -163 -182 -300 -299 -472
-403 -1048 -724 -1650 -920 -373 -120 -716 -189 -1160 -232 -142 -13 -726 -17
-789 -4 l-39 7 6 -248 c14 -559 101 -1253 237 -1890 259 -1208 681 -2255 1265
-3138 574 -868 1295 -1544 2160 -2023 61 -33 150 -80 198 -103 l88 -42 116 57
c373 182 820 482 1183 795 161 138 447 421 587 581 784 896 1354 2027 1717
3410 194 739 328 1654 343 2334 5 238 4 269 -9 263 -8 -3 -118 -8 -244 -12
-420 -13 -872 30 -1278 122 -751 168 -1464 517 -2051 1002 -116 97 -343 318
-347 340 -2 10 -10 15 -21 13z m125 -474 c162 -151 261 -235 393 -333 770
-574 1792 -922 2919 -995 93 -6 178 -16 189 -22 19 -10 20 -18 14 -237 -23
-787 -139 -1603 -328 -2305 -144 -534 -321 -1003 -556 -1471 -102 -203 -104
-207 -231 -425 -500 -853 -1208 -1583 -2007 -2070 -208 -126 -523 -280 -574
-280 -12 0 -78 32 -148 71 -1418 795 -2462 2130 -3057 3909 -254 761 -420
1596 -481 2412 -20 269 -20 411 -1 427 9 8 94 16 238 22 424 18 745 55 1082
125 637 133 1225 374 1725 708 207 138 337 243 517 419 89 86 167 157 174 157
6 0 65 -51 132 -112z"/>
<path d="M8602 13253 c-359 -358 -881 -680 -1469 -906 -510 -196 -1152 -330
-1689 -353 -76 -3 -150 -7 -164 -9 -14 -2 -74 -4 -134 -4 l-109 -1 7 -162 c47
-1139 313 -2330 749 -3353 98 -231 312 -656 431 -860 542 -922 1249 -1664
2081 -2184 212 -132 344 -204 375 -204 32 0 287 121 447 214 348 199 719 482
1043 796 1081 1046 1778 2529 2024 4308 60 432 94 859 99 1230 l2 180 -135 7
c-1006 54 -2024 377 -2780 880 -216 145 -486 362 -615 497 -21 22 -42 40 -45
39 -3 -1 -56 -53 -118 -115z m-469 -1010 c-7 -2 -19 -2 -25 0 -7 3 -2 5 12 5
14 0 19 -2 13 -5z m-76 -9 c-3 -3 -12 -4 -19 -1 -8 3 -5 6 6 6 11 1 17 -2 13
-5z m-67 -19 c-46 -18 -64 -17 -25 0 17 8 37 14 45 14 8 0 -1 -7 -20 -14z
m490 -122 c51 -57 104 -144 135 -220 16 -37 36 -76 46 -87 16 -18 19 -17 95
12 126 48 221 64 384 65 231 0 271 -13 790 -253 131 -61 245 -110 254 -110 9
0 56 26 104 58 84 57 192 122 182 110 -3 -4 -45 -33 -95 -67 -128 -85 -133
-90 -115 -101 8 -5 15 -19 15 -32 0 -19 19 -31 125 -80 273 -126 441 -178 634
-198 154 -16 243 5 342 80 39 29 61 56 84 104 31 63 32 65 21 137 -13 82 -34
121 -91 173 -91 82 -207 119 -370 119 -134 -1 -258 -22 -368 -62 -117 -43
-122 -44 -54 -11 157 76 299 106 462 97 127 -7 214 -32 298 -87 101 -65 148
-157 140 -275 -13 -200 -244 -372 -545 -405 -218 -23 -529 36 -853 164 l-114
46 -24 -23 c-13 -12 -51 -54 -83 -94 -270 -329 -497 -866 -757 -1788 -66 -234
-66 -240 38 -273 41 -12 83 -22 94 -20 22 3 27 14 71 158 50 159 117 270 186
306 l29 15 -34 -45 c-42 -55 -88 -173 -121 -309 -21 -85 -23 -107 -13 -131 11
-27 13 -28 69 -24 113 8 204 84 249 208 16 43 19 47 15 20 -3 -19 -17 -59 -32
-88 -48 -94 -128 -147 -253 -166 l-75 -12 -32 -139 c-45 -193 -76 -288 -128
-392 -50 -101 -114 -179 -162 -199 -47 -20 -48 -18 -14 21 61 70 116 202 175
415 47 171 56 216 59 278 l2 54 -85 25 c-47 14 -91 26 -99 27 -9 1 -38 -86
-96 -289 -165 -582 -236 -789 -345 -1010 -207 -423 -549 -800 -851 -939 -101
-47 -177 -66 -289 -73 -129 -8 -222 9 -321 59 -180 90 -309 266 -375 513 -23
87 -27 120 -28 260 -1 128 3 174 18 230 43 160 97 235 168 235 78 0 120 -79
119 -227 0 -181 -77 -308 -159 -262 -40 22 -55 64 -60 159 -4 108 -8 119 -29
98 -37 -37 -35 -309 2 -507 30 -152 152 -351 273 -441 109 -81 209 -106 358
-89 415 47 723 453 1098 1446 129 343 277 793 282 856 l5 57 -34 0 c-19 0 -53
-7 -76 -15 -22 -8 -41 -12 -41 -9 0 11 72 34 109 34 22 0 48 7 60 18 13 11 47
90 92 217 223 630 431 1070 681 1445 118 176 150 219 236 311 29 32 51 63 47
68 -3 6 3 19 14 30 19 19 18 20 -252 154 -343 170 -466 221 -667 273 -61 16
-291 26 -303 14 -3 -3 3 -47 14 -99 35 -171 50 -323 56 -561 15 -605 -93
-1149 -336 -1695 -219 -493 -450 -735 -700 -736 -115 -1 -194 57 -262 192 -39
78 -80 212 -78 258 0 14 11 -11 23 -56 70 -256 162 -369 296 -366 190 4 372
187 554 558 383 778 541 1776 388 2445 -7 31 -12 35 -37 33 -40 -3 -186 -75
-262 -129 -196 -140 -401 -407 -590 -769 -34 -66 -63 -116 -63 -111 0 14 125
250 193 364 181 302 408 540 634 664 40 22 74 43 74 46 11 65 7 81 -47 190
-45 94 -67 126 -125 184 -61 61 -64 66 -26 39 24 -16 59 -47 77 -68z m-610 73
c0 -2 -12 -11 -27 -20 l-28 -17 24 20 c23 21 31 25 31 17z m-110 -79 c0 -2
-15 -16 -32 -33 l-33 -29 29 33 c28 30 36 37 36 29z m2770 -391 c0 -2 -7 -7
-16 -10 -8 -3 -12 -2 -9 4 6 10 25 14 25 6z m-3140 -106 c-6 -11 -13 -20 -16
-20 -2 0 0 9 6 20 6 11 13 20 16 20 2 0 0 -9 -6 -20z m-61 -117 c-17 -38 -49
-108 -71 -158 -39 -89 -57 -119 -65 -111 -10 9 148 336 162 336 2 0 -10 -30
-26 -67z m2380 -2048 l-1 -40 -9 44 c-4 23 -11 53 -14 65 -5 18 -4 17 9 -4 9
-14 15 -43 15 -65z m-1079 -319 c0 -2 -8 -10 -17 -17 -16 -13 -17 -12 -4 4 13
16 21 21 21 13z m-85 -122 c-18 -36 -41 -97 -50 -135 -10 -38 -22 -69 -27 -69
-14 0 -1 82 23 136 17 42 75 134 84 134 1 0 -12 -30 -30 -66z"/>
<path d="M3271 10313 c-33 -336 -42 -883 -21 -1178 100 -1354 668 -2379 1668
-3007 146 -92 427 -234 587 -297 226 -89 543 -181 623 -181 30 0 32 2 22 20
-10 19 -8 19 37 14 46 -6 43 -3 -82 66 -173 95 -380 234 -545 366 -152 121
-503 467 -629 619 -456 550 -821 1187 -1136 1980 -192 483 -377 1095 -474
1569 -15 75 -30 138 -33 141 -3 3 -10 -48 -17 -112z"/>
<path d="M14196 10323 c-80 -416 -267 -1053 -444 -1513 -222 -579 -526 -1175
-818 -1602 -199 -293 -369 -502 -594 -732 -306 -313 -599 -541 -937 -727 -126
-70 -127 -71 -78 -65 38 5 47 4 37 -6 -34 -34 15 -37 138 -8 511 122 1019 370
1430 698 125 100 371 342 473 466 472 569 746 1263 843 2136 21 193 30 820 15
1058 -14 214 -32 392 -40 392 -3 0 -15 -44 -25 -97z"/>
<path d="M3355 7533 c3 -21 10 -81 15 -133 52 -472 175 -912 359 -1280 383
-767 1017 -1215 1911 -1351 137 -21 189 -24 455 -24 225 1 336 5 445 18 267
33 445 70 402 85 -26 8 -9 20 48 32 33 7 63 16 65 20 2 4 -48 10 -111 14 -251
14 -585 74 -846 152 -806 240 -1532 758 -2125 1514 -206 264 -392 553 -525
821 -46 92 -86 168 -91 168 -4 1 -5 -16 -2 -36z"/>
<path d="M14100 7473 c-104 -223 -315 -565 -498 -808 -604 -802 -1355 -1350
-2192 -1600 -257 -76 -596 -137 -852 -152 -59 -3 -105 -9 -103 -13 2 -4 32
-13 65 -20 57 -12 74 -24 48 -32 -28 -10 36 -28 178 -52 254 -42 372 -51 684
-51 250 1 316 4 430 22 397 63 724 174 1009 344 211 127 462 346 611 534 352
444 583 1058 660 1755 5 52 12 112 15 133 3 20 2 37 -2 37 -5 -1 -28 -44 -53
-97z"/>
<path d="M4310 5133 c1 -4 7 -19 15 -33 8 -14 14 -39 15 -55 0 -39 83 -184
180 -318 90 -122 313 -349 428 -436 262 -198 579 -337 897 -396 468 -86 948
-41 1527 144 234 74 482 112 733 110 109 0 209 -9 219 -20 2 -2 -5 -44 -16
-94 -37 -172 -20 -554 29 -648 9 -18 18 -27 19 -22 2 6 15 62 29 125 38 172
95 281 204 390 49 48 105 94 128 104 l42 19 57 -34 c69 -42 166 -145 217 -230
37 -63 82 -194 109 -319 l14 -65 18 40 c49 111 64 469 27 640 -10 50 -17 92
-15 94 10 11 110 20 219 20 256 2 499 -37 759 -118 248 -79 450 -124 691 -157
159 -21 506 -24 647 -5 671 87 1209 424 1571 981 71 110 97 163 97 197 1 15 7
39 15 53 27 47 15 41 -80 -42 -273 -237 -576 -369 -1010 -437 -213 -33 -384
-44 -685 -44 -423 1 -763 28 -1325 108 -380 54 -490 65 -672 65 -228 0 -461
-39 -604 -103 l-54 -24 -55 25 c-144 63 -375 102 -603 102 -182 0 -292 -11
-672 -65 -562 -80 -902 -107 -1325 -108 -301 0 -472 11 -685 44 -433 68 -744
203 -1012 438 -51 45 -93 78 -93 74z"/>
<path d="M6508 2923 c-3 -231 -2 -267 12 -271 8 -3 7 -8 -1 -18 -8 -10 -12
-70 -13 -190 -1 -209 -4 -204 114 -204 114 0 115 1 116 157 l1 128 29 6 c16 4
54 7 85 8 32 0 61 6 66 14 19 24 24 72 18 164 l-7 93 -100 0 c-64 0 -97 4 -93
10 3 6 51 10 109 10 142 0 140 -2 144 149 l4 121 -241 0 -241 0 -2 -177z m134
-45 c4 -65 3 -68 -19 -68 -22 0 -23 4 -23 70 0 55 3 71 18 79 20 11 20 13 24
-81z m-2 -418 c0 -63 -2 -70 -20 -70 -18 0 -20 7 -20 58 0 53 11 82 32 82 4 0
8 -31 8 -70z"/>
<path d="M7043 2903 c5 -236 5 -177 0 -423 -5 -246 -8 -240 114 -240 85 0 108
9 117 46 l7 26 39 -36 c40 -36 41 -36 129 -36 102 0 121 5 121 30 0 10 5 20
10 22 6 2 -24 68 -65 147 -41 79 -77 151 -80 160 -3 10 7 24 29 38 72 46 106
124 106 240 0 82 -52 163 -132 204 -33 17 -60 19 -218 19 l-181 0 4 -197z
m137 13 c7 -52 5 -56 -22 -56 -15 0 -18 8 -18 48 0 27 3 52 7 56 15 15 28 -3
33 -48z m290 -60 c0 -19 -9 -45 -21 -60 -24 -31 -45 -35 -29 -6 14 27 15 112
1 141 -10 20 -7 18 18 -9 22 -23 31 -42 31 -66z m-296 -284 c-1 -7 -2 -50 -2
-97 -2 -68 -5 -85 -17 -85 -12 0 -15 17 -15 93 0 52 3 97 7 101 10 9 28 1 27
-12z m187 -96 c22 -43 38 -80 35 -83 -3 -3 -28 41 -56 98 -28 57 -43 95 -35
84 9 -11 35 -55 56 -99z"/>
<path d="M7655 3038 c-3 -35 -4 -133 -1 -218 6 -185 6 -156 0 -367 -6 -213 -6
-213 112 -213 117 0 114 -4 114 160 l0 140 68 0 c37 0 72 -4 79 -8 7 -5 12
-52 15 -135 4 -156 5 -157 118 -157 117 0 114 -5 118 202 2 95 1 282 -3 416
l-7 242 -109 0 -109 0 0 -139 c0 -117 -2 -140 -16 -145 -19 -7 -127 -8 -146
-1 -10 4 -12 35 -10 145 l4 140 -110 0 -110 0 -7 -62z m129 -90 c3 -7 7 -39 9
-70 5 -56 5 -58 -19 -58 -23 0 -24 3 -24 70 0 56 3 70 15 70 9 0 17 -6 19 -12z
m394 -276 c2 -277 2 -282 -18 -282 -20 0 -20 6 -20 278 0 153 3 282 7 286 24
24 28 -15 31 -282z m-388 -207 c0 -68 -2 -75 -20 -75 -18 0 -20 7 -20 63 0 58
11 87 32 87 4 0 8 -34 8 -75z"/>
<path d="M8315 3083 c4 -10 11 -34 15 -53 8 -40 115 -265 184 -390 l47 -85 2
-143 c2 -173 2 -172 117 -172 115 0 114 -1 120 177 l5 148 46 85 c90 164 182
355 184 380 1 14 5 35 9 48 7 22 7 22 -113 22 l-119 0 -45 -82 c-24 -46 -70
-132 -102 -191 l-57 -109 -63 119 c-34 65 -60 120 -58 123 8 8 35 -38 69 -114
17 -41 37 -72 46 -74 22 -4 44 33 51 84 4 34 -3 55 -47 140 l-51 99 -124 3
c-115 2 -123 1 -116 -15z m538 -172 c-15 -28 -29 -48 -31 -47 -8 9 42 96 55
96 2 0 -8 -22 -24 -49z m-153 -411 c0 -103 -1 -110 -20 -110 -18 0 -20 7 -20
85 0 62 4 93 16 110 9 14 18 25 20 25 2 0 4 -49 4 -110z"/>
<path d="M9067 3093 c-4 -3 -7 -55 -7 -115 0 -127 11 -148 79 -148 55 0 71 20
71 86 0 41 4 54 15 54 13 0 15 -45 15 -345 0 -411 -8 -385 118 -385 125 0 117
-21 118 307 l2 278 78 5 c74 5 80 7 92 33 10 20 12 54 6 132 l-7 105 -287 0
c-158 0 -290 -3 -293 -7z m313 -483 c0 -213 -1 -220 -20 -220 -19 0 -20 7 -20
210 0 188 2 210 18 219 9 6 18 11 20 11 1 0 2 -99 2 -220z"/>
<path d="M9690 2881 c0 -156 3 -220 11 -223 9 -3 9 -9 0 -25 -7 -14 -11 -83
-11 -192 0 -206 -3 -201 111 -201 116 0 119 5 119 170 l0 130 68 0 c40 0 73
-5 80 -12 8 -8 12 -53 12 -134 0 -98 3 -126 16 -138 22 -22 161 -22 192 0 l22
15 0 415 0 414 -115 0 -114 0 -3 -142 -3 -143 -55 -3 c-30 -2 -69 -1 -87 3
-30 5 -31 8 -23 31 11 28 13 196 4 232 -6 21 -11 22 -115 22 l-109 0 0 -219z
m130 35 c0 -25 4 -56 10 -70 9 -24 7 -26 -18 -26 l-27 0 3 70 c3 52 7 70 18
70 10 0 14 -13 14 -44z m390 -241 c0 -247 -2 -285 -15 -285 -15 0 -16 23 -18
285 -2 200 4 285 18 285 13 0 15 -38 15 -285z m-390 -210 c0 -60 -3 -75 -15
-75 -12 0 -15 14 -15 69 0 63 3 73 28 80 1 1 2 -33 2 -74z"/>
<path d="M10410 2686 l0 -415 22 -15 c16 -11 46 -16 100 -16 106 0 108 2 107
148 l0 117 -43 84 -43 84 -6 -78 c-4 -43 -7 -107 -7 -142 0 -49 -3 -63 -15
-63 -13 0 -15 27 -15 185 0 102 4 185 8 185 5 0 55 -92 111 -205 57 -112 110
-210 118 -217 21 -17 114 -21 142 -6 13 7 40 42 60 77 20 35 41 63 46 63 6 -1
12 -48 15 -107 4 -79 9 -108 20 -116 24 -16 189 -7 200 11 6 9 10 185 10 428
l0 412 -113 0 -112 0 -95 -190 -95 -190 -95 190 -95 190 -48 0 c-43 0 -48 -2
-42 -17 3 -10 9 -31 12 -48 3 -16 34 -86 68 -155 35 -69 70 -147 79 -175 25
-71 95 -202 113 -209 8 -3 19 -3 24 0 12 7 99 179 99 195 0 6 27 67 59 135 60
125 87 155 125 141 14 -6 16 -42 16 -292 0 -247 -2 -285 -15 -285 -13 0 -15
35 -17 243 -2 133 -2 261 -2 285 0 23 -2 42 -5 42 -3 0 -62 -111 -131 -245
-100 -197 -129 -245 -145 -245 -11 0 -25 10 -31 23 -5 12 -77 154 -160 314
l-149 293 -37 0 -38 0 0 -414z"/>
</g>
</svg>
